# xmcd
#
# Track frame offsets:
#        150
#        23345
#        46342
#        61247
#        77745
#        93985
#        110650
#        128840
#        144420
#        173920
#        190617
#        214635
#        235157
#        256800
#        274327
#
# Disc length: 3877 seconds
#
# Revision: 0
# Processed by: cddbd v1.5.1PL2 Copyright (c) Steve Scherf et al.
# Submitted via: ExactAudioCopy v0.95b4
#
DISCID=c40f230f
DTITLE=R.L. Burnside - Wish I Was In Heaven Sitting Down
DYEAR=2000
DGENRE=Blues
TTITLE0=Hard Time Killing Floor
TTITLE1=Got Messed Up
TTITLE2=Miss Maybelle
TTITLE3=Wish I Was In Heaven Sitting Down
TTITLE4=Too Many Ups
TTITLE5=Nothin' Man
TTITLE6=See What My Buddy Done
TTITLE7=My Eyes Keep Me In Trouble
TTITLE8=Bad Luck City
TTITLE9=Chain Of Fools
TTITLE10=R.L.'s Story
TTITLE11=Good Thing
TTITLE12=#13
TTITLE13=#14
TTITLE14=#15
EXTD=
EXTT0=
EXTT1=
EXTT2=
EXTT3=
EXTT4=
EXTT5=
EXTT6=
EXTT7=
EXTT8=
EXTT9=
EXTT10=
EXTT11=
EXTT12=
EXTT13=
EXTT14=
PLAYORDER=
